<svg id="Web" xmlns="http://www.w3.org/2000/svg" width="1920" height="706" viewBox="0 0 1920 706"><defs><style>.cls-1{fill:#e14f3c;}.cls-1,.cls-4{isolation:isolate;}.cls-2{fill:#5a1720;}.cls-3{fill:#111010;opacity:0.15;}.cls-4{fill:none;stroke:#e14f3c;stroke-miterlimit:10;}</style></defs><title>web</title><g id="BG"><rect class="cls-1" width="1920" height="706"/><path class="cls-2" d="M603.94,356.18c9.49-22.78,2.25-39.51-3.78-50.26s-25.27-35.82-25.27-35.82c-9.6-4.75-30-11.86-41.94-9.42s-59.78,19.38-75.33,23-18-1.13-20.37-4.71S424,256.3,425.17,249.12s7.17-3.62,9.57-1.24,9.61,8.35,14.41,10.72,7.19,3.57,34.7-3.72,46.65-9.75,58.63-6.21,28.78,13.06,28.78,13.06-18.11-40.63-12.24-73,9.33-64.68-33.89-96.84S396.84,37.34,396.84,37.34C416.41,148.59,307.52,161,274.06,175.46c-109.35,47.36-104.81,142.86-74.75,178.66s24.2,68.14,24.2,68.14c59.8-14.59,74.12-25.42,80.1-27.84s23.9-10.86,35.87-10.9c8.84,0,60.77-2.85,87.32-4.31a92.55,92.55,0,0,1,30.7,3.47l39.63,11.39a4.21,4.21,0,0,1,3,3.83c.33,6.18.31,20.19-6.11,25.73-8.35,7.22-34.39,3.78-39.18,3.8s-10.76-2-16.75-3.13a35.88,35.88,0,0,0-16,.06c-4.78,1.21-9.26,2.82-4.65,5.55,5.95,3.52,35.45,7.06,45,9.42s14.25,1.64,32.83,2.26c20.37.68,89.18,6.41,89.18,6.41s-1.79-5.55-.69-30.69C585.29,383.74,594.45,379,603.94,356.18ZM365.32,251.74a72.58,72.58,0,0,1-9.48,25.17c-7.14,12-17.93,7.25-23.92,6.08-7.43-1.46-32.36-9.46-47.94-14.19-14.89-4.52-28.76-9.47-40.72-7-7.14,1.46-23.7,8.91-33.47,13.3C199,279.9,195.44,278.71,199,276.3S231.27,257,244.41,251s28.72-2.5,35.91-1.33,27.61,5.62,44.33,9.41c15.58,3.53,18.46.75,22.74-2.48,4.77-3.61,11.93-9.62,11.93-9.62C362.9,244.56,366.49,244.55,365.32,251.74Z"/><path class="cls-2" d="M500.43,497.12s-38.1-4.68-48.69-4.64c-7.37,0-11.72,0-11.7,3.83,0,3.21,3.6,3.76,12.11,3.73C461.41,500,500.43,497.12,500.43,497.12Z"/><path class="cls-2" d="M256.64,616.27s53.1,48.18,115.38,55.26,113.78-34.2,116.55-35.47-9.19,2.3-16.74,3.84-90.08,5.32-108.49,2.93C349.63,641.05,295.75,630.23,256.64,616.27Z"/><path class="cls-3" d="M0,701.48s126.27-52.12,160.38-62.21,79.66-17.93,129.47,5c60.53,27.9,130.51,24.19,176.32,13.91,52.52-11.79,88.31-39.47,85.68-55.69,0,0,33.9-11.37,45.58-15.89,12.25-4.74,28.63-13.47,16.63-24.42l1.37-3.58s22.84-2.31,26.53-12.42,1.47-16.21-1.37-21.79-26.11-28.95-26.11-28.95,20-.77,25.48,4.56c0,0,.84-2.66-5.69-11.08l-44.63,15.16L246.27,569.44H0Z"/><path class="cls-1" d="M0,631.27S131.12,607.48,155.12,606s52-7,69.26,0,106.55,33.83,142.85,37.18,94.25-.8,104.6-3.29,35.29-11,44.76-16.39,24.16-24.92,27-28.34,5.68-8.32,2.53-11.95c0,0,49-11.74,58.68-15.52s14.11-8.43,15-18.32S609,536.54,602.48,535.91c0,0,18.11-.64,25.69-3.37s11.58-5.27,12.63-8c.11-.28-18.32-29.93-30.32-30.11C592.37,494.17,526.2,511.59,489,513c-178.91,6.6-489,0-489,0Z"/><path class="cls-2" d="M490.1,589s-34.31,2.33-43.09,4.82-4.45,3.69,4.95,6c10,2.46,16,2.35,24.94-2.51A91.11,91.11,0,0,0,490.1,589Z"/><rect class="cls-4" x="866.2" y="97.38" width="896.84" height="514.67"/></g></svg>